<mxfile host="app.diagrams.net" agent="Mozilla/5.0 (Windows NT 10.0; Win64; x64) AppleWebKit/537.36 (KHTML, like Gecko) Chrome/135.0.0.0 Safari/537.36 Edg/135.0.0.0" version="26.2.12">
  <diagram name="Página-1" id="JHDFiiOjMU33PO68Ojvq">
    <mxGraphModel dx="1185" dy="694" grid="1" gridSize="10" guides="1" tooltips="1" connect="1" arrows="1" fold="1" page="1" pageScale="1" pageWidth="827" pageHeight="1169" math="0" shadow="0">
      <root>
        <mxCell id="0" />
        <mxCell id="1" parent="0" />
        <mxCell id="G9AbDLSKTJvSuDwkwNPR-1" value="Step 1 (escáner)" style="rounded=0;whiteSpace=wrap;html=1;verticalAlign=top;align=left;" vertex="1" parent="1">
          <mxGeometry x="40" y="1200" width="720" height="240" as="geometry" />
        </mxCell>
        <mxCell id="G9AbDLSKTJvSuDwkwNPR-32" value="Almacen" style="html=1;verticalLabelPosition=top;align=center;labelBackgroundColor=#ffffff;verticalAlign=bottom;strokeWidth=2;strokeColor=#0080F0;shadow=0;dashed=0;shape=mxgraph.ios7.icons.data;aspect=fixed;labelPosition=center;" vertex="1" parent="1">
          <mxGeometry x="604.69" y="1259.23" width="65.61" height="79.55" as="geometry" />
        </mxCell>
        <mxCell id="0uFuZpnQ9-CGS-ED7mx_-4" style="edgeStyle=orthogonalEdgeStyle;rounded=0;orthogonalLoop=1;jettySize=auto;html=1;" parent="1" source="0uFuZpnQ9-CGS-ED7mx_-1" target="0uFuZpnQ9-CGS-ED7mx_-2" edge="1">
          <mxGeometry relative="1" as="geometry" />
        </mxCell>
        <mxCell id="0uFuZpnQ9-CGS-ED7mx_-1" value="Extraccion" style="rounded=0;whiteSpace=wrap;html=1;" parent="1" vertex="1">
          <mxGeometry x="106" y="450" width="120" height="60" as="geometry" />
        </mxCell>
        <mxCell id="0uFuZpnQ9-CGS-ED7mx_-5" style="edgeStyle=orthogonalEdgeStyle;rounded=0;orthogonalLoop=1;jettySize=auto;html=1;" parent="1" source="0uFuZpnQ9-CGS-ED7mx_-2" target="0uFuZpnQ9-CGS-ED7mx_-3" edge="1">
          <mxGeometry relative="1" as="geometry" />
        </mxCell>
        <mxCell id="0uFuZpnQ9-CGS-ED7mx_-2" value="Analisis" style="rounded=0;whiteSpace=wrap;html=1;" parent="1" vertex="1">
          <mxGeometry x="356" y="450" width="120" height="60" as="geometry" />
        </mxCell>
        <mxCell id="0uFuZpnQ9-CGS-ED7mx_-3" value="Generación del reporte" style="rounded=0;whiteSpace=wrap;html=1;" parent="1" vertex="1">
          <mxGeometry x="600" y="450" width="120" height="60" as="geometry" />
        </mxCell>
        <mxCell id="0uFuZpnQ9-CGS-ED7mx_-6" value="Extraer información de páginas y capturas de pantalla" style="text;html=1;align=center;verticalAlign=middle;whiteSpace=wrap;rounded=0;strokeColor=default;" parent="1" vertex="1">
          <mxGeometry x="101" y="540" width="130" height="80" as="geometry" />
        </mxCell>
        <mxCell id="0uFuZpnQ9-CGS-ED7mx_-7" value="Analizar las capturas y la información extraída, bajo un contexto" style="text;html=1;align=center;verticalAlign=middle;whiteSpace=wrap;rounded=0;strokeColor=default;" parent="1" vertex="1">
          <mxGeometry x="351" y="540" width="130" height="80" as="geometry" />
        </mxCell>
        <mxCell id="0uFuZpnQ9-CGS-ED7mx_-8" value="Generar salidas en gráficos, doc, etc." style="text;html=1;align=center;verticalAlign=middle;whiteSpace=wrap;rounded=0;strokeColor=default;" parent="1" vertex="1">
          <mxGeometry x="595" y="540" width="130" height="80" as="geometry" />
        </mxCell>
        <mxCell id="0uFuZpnQ9-CGS-ED7mx_-11" value="" style="shape=xor;whiteSpace=wrap;html=1;" parent="1" vertex="1">
          <mxGeometry x="430" y="280" width="60" height="80" as="geometry" />
        </mxCell>
        <mxCell id="0uFuZpnQ9-CGS-ED7mx_-12" value="" style="shape=xor;whiteSpace=wrap;html=1;direction=west;" parent="1" vertex="1">
          <mxGeometry x="370" y="280" width="60" height="80" as="geometry" />
        </mxCell>
        <mxCell id="G9AbDLSKTJvSuDwkwNPR-2" value="Step 1 (escaner)" style="rounded=0;whiteSpace=wrap;html=1;verticalAlign=top;align=left;" vertex="1" parent="1">
          <mxGeometry x="50" y="2250" width="720" height="240" as="geometry" />
        </mxCell>
        <mxCell id="G9AbDLSKTJvSuDwkwNPR-5" value="" style="group" vertex="1" connectable="0" parent="1">
          <mxGeometry x="60" y="1290" width="80" height="80" as="geometry" />
        </mxCell>
        <mxCell id="G9AbDLSKTJvSuDwkwNPR-4" value="" style="whiteSpace=wrap;html=1;aspect=fixed;" vertex="1" parent="G9AbDLSKTJvSuDwkwNPR-5">
          <mxGeometry width="80" height="80" as="geometry" />
        </mxCell>
        <mxCell id="G9AbDLSKTJvSuDwkwNPR-3" value="" style="shape=actor;whiteSpace=wrap;html=1;fillColor=#bac8d3;strokeColor=#23445d;" vertex="1" parent="G9AbDLSKTJvSuDwkwNPR-5">
          <mxGeometry x="20" y="10" width="40" height="60" as="geometry" />
        </mxCell>
        <mxCell id="G9AbDLSKTJvSuDwkwNPR-6" value="" style="group" vertex="1" connectable="0" parent="1">
          <mxGeometry x="150" y="1290" width="80" height="80" as="geometry" />
        </mxCell>
        <mxCell id="G9AbDLSKTJvSuDwkwNPR-7" value="" style="whiteSpace=wrap;html=1;aspect=fixed;" vertex="1" parent="G9AbDLSKTJvSuDwkwNPR-6">
          <mxGeometry width="80" height="80" as="geometry" />
        </mxCell>
        <mxCell id="G9AbDLSKTJvSuDwkwNPR-8" value="" style="shape=actor;whiteSpace=wrap;html=1;fillColor=#d0cee2;strokeColor=#56517e;" vertex="1" parent="G9AbDLSKTJvSuDwkwNPR-6">
          <mxGeometry x="20" y="10" width="40" height="60" as="geometry" />
        </mxCell>
        <mxCell id="G9AbDLSKTJvSuDwkwNPR-9" value="" style="group" vertex="1" connectable="0" parent="1">
          <mxGeometry x="240" y="1290" width="80" height="80" as="geometry" />
        </mxCell>
        <mxCell id="G9AbDLSKTJvSuDwkwNPR-10" value="" style="whiteSpace=wrap;html=1;aspect=fixed;" vertex="1" parent="G9AbDLSKTJvSuDwkwNPR-9">
          <mxGeometry width="80" height="80" as="geometry" />
        </mxCell>
        <mxCell id="G9AbDLSKTJvSuDwkwNPR-11" value="" style="shape=actor;whiteSpace=wrap;html=1;fillColor=#fad9d5;strokeColor=#ae4132;" vertex="1" parent="G9AbDLSKTJvSuDwkwNPR-9">
          <mxGeometry x="20" y="10" width="40" height="60" as="geometry" />
        </mxCell>
        <mxCell id="G9AbDLSKTJvSuDwkwNPR-14" value="" style="html=1;dashed=0;aspect=fixed;verticalLabelPosition=bottom;verticalAlign=top;align=center;shape=mxgraph.gmdl.voice;strokeColor=#006EAF;fillColor=#1ba1e2;shadow=0;strokeWidth=2;sketch=0;fontColor=#ffffff;" vertex="1" parent="1">
          <mxGeometry x="91" y="1380" width="18" height="30" as="geometry" />
        </mxCell>
        <mxCell id="G9AbDLSKTJvSuDwkwNPR-15" value="" style="html=1;dashed=0;aspect=fixed;verticalLabelPosition=bottom;verticalAlign=top;align=center;shape=mxgraph.gmdl.voice;strokeColor=#006EAF;fillColor=#1ba1e2;shadow=0;strokeWidth=2;sketch=0;fontColor=#ffffff;" vertex="1" parent="1">
          <mxGeometry x="181" y="1380" width="18" height="30" as="geometry" />
        </mxCell>
        <mxCell id="G9AbDLSKTJvSuDwkwNPR-16" value="" style="html=1;dashed=0;aspect=fixed;verticalLabelPosition=bottom;verticalAlign=top;align=center;shape=mxgraph.gmdl.voice;strokeColor=#006EAF;fillColor=#1ba1e2;shadow=0;strokeWidth=2;sketch=0;fontColor=#ffffff;" vertex="1" parent="1">
          <mxGeometry x="271" y="1380" width="18" height="30" as="geometry" />
        </mxCell>
        <mxCell id="G9AbDLSKTJvSuDwkwNPR-17" value="Persona 1 (Juan)" style="text;html=1;align=center;verticalAlign=middle;whiteSpace=wrap;rounded=0;" vertex="1" parent="1">
          <mxGeometry x="70" y="1260" width="60" height="30" as="geometry" />
        </mxCell>
        <mxCell id="G9AbDLSKTJvSuDwkwNPR-18" value="Persona 2 (Carlos)" style="text;html=1;align=center;verticalAlign=middle;whiteSpace=wrap;rounded=0;" vertex="1" parent="1">
          <mxGeometry x="160" y="1260" width="60" height="30" as="geometry" />
        </mxCell>
        <mxCell id="G9AbDLSKTJvSuDwkwNPR-19" value="Persona 3 (Carol)" style="text;html=1;align=center;verticalAlign=middle;whiteSpace=wrap;rounded=0;" vertex="1" parent="1">
          <mxGeometry x="250" y="1260" width="60" height="30" as="geometry" />
        </mxCell>
        <mxCell id="G9AbDLSKTJvSuDwkwNPR-25" style="edgeStyle=orthogonalEdgeStyle;rounded=0;orthogonalLoop=1;jettySize=auto;html=1;fillColor=#b0e3e6;strokeColor=#0e8088;strokeWidth=2;curved=1;entryX=0.003;entryY=0.561;entryDx=0;entryDy=0;entryPerimeter=0;" edge="1" parent="1" source="G9AbDLSKTJvSuDwkwNPR-20" target="G9AbDLSKTJvSuDwkwNPR-32">
          <mxGeometry relative="1" as="geometry">
            <mxPoint x="600.0066391265859" y="1299.0588235294117" as="targetPoint" />
          </mxGeometry>
        </mxCell>
        <mxCell id="G9AbDLSKTJvSuDwkwNPR-20" value="" style="sketch=0;pointerEvents=1;shadow=0;dashed=0;html=1;strokeColor=none;fillColor=#505050;labelPosition=center;verticalLabelPosition=bottom;verticalAlign=top;outlineConnect=0;align=center;shape=mxgraph.office.devices.video_camera;flipH=1;rotation=-15;aspect=fixed;" vertex="1" parent="1">
          <mxGeometry x="414" y="1250" width="67.6" height="32.5" as="geometry" />
        </mxCell>
        <mxCell id="G9AbDLSKTJvSuDwkwNPR-21" value="" style="endArrow=none;html=1;rounded=0;entryX=0.375;entryY=0.875;entryDx=0;entryDy=0;entryPerimeter=0;fillColor=#e51400;strokeColor=#B20000;" edge="1" parent="1" target="G9AbDLSKTJvSuDwkwNPR-1">
          <mxGeometry width="50" height="50" relative="1" as="geometry">
            <mxPoint x="414" y="1300" as="sourcePoint" />
            <mxPoint x="344" y="1360" as="targetPoint" />
          </mxGeometry>
        </mxCell>
        <mxCell id="G9AbDLSKTJvSuDwkwNPR-23" value="" style="endArrow=none;html=1;rounded=0;entryX=0.375;entryY=0.875;entryDx=0;entryDy=0;entryPerimeter=0;fillColor=#e51400;strokeColor=#B20000;" edge="1" parent="1">
          <mxGeometry width="50" height="50" relative="1" as="geometry">
            <mxPoint x="403" y="1260" as="sourcePoint" />
            <mxPoint x="250" y="1250" as="targetPoint" />
          </mxGeometry>
        </mxCell>
        <mxCell id="G9AbDLSKTJvSuDwkwNPR-29" style="edgeStyle=orthogonalEdgeStyle;rounded=0;orthogonalLoop=1;jettySize=auto;html=1;fillColor=#1ba1e2;strokeColor=#006EAF;" edge="1" parent="1" target="G9AbDLSKTJvSuDwkwNPR-28">
          <mxGeometry relative="1" as="geometry">
            <mxPoint x="630.0000000000002" y="1338" as="sourcePoint" />
            <Array as="points">
              <mxPoint x="630" y="1358" />
              <mxPoint x="595" y="1358" />
            </Array>
          </mxGeometry>
        </mxCell>
        <mxCell id="G9AbDLSKTJvSuDwkwNPR-30" style="edgeStyle=orthogonalEdgeStyle;rounded=0;orthogonalLoop=1;jettySize=auto;html=1;fillColor=#1ba1e2;strokeColor=#006EAF;" edge="1" parent="1" target="G9AbDLSKTJvSuDwkwNPR-27">
          <mxGeometry relative="1" as="geometry">
            <mxPoint x="650.0000000000002" y="1338" as="sourcePoint" />
            <Array as="points">
              <mxPoint x="650" y="1358" />
              <mxPoint x="678" y="1358" />
            </Array>
          </mxGeometry>
        </mxCell>
        <mxCell id="G9AbDLSKTJvSuDwkwNPR-27" value="" style="shadow=0;dashed=0;html=1;strokeColor=none;fillColor=#4495D1;labelPosition=center;verticalLabelPosition=bottom;verticalAlign=top;align=center;outlineConnect=0;shape=mxgraph.veeam.audio_file;" vertex="1" parent="1">
          <mxGeometry x="664.1" y="1380.0000000000002" width="36.8" height="50.8" as="geometry" />
        </mxCell>
        <mxCell id="G9AbDLSKTJvSuDwkwNPR-28" value="" style="image;aspect=fixed;html=1;points=[];align=center;fontSize=12;image=img/lib/azure2/ai_machine_learning/Face_APIs.svg;" vertex="1" parent="1">
          <mxGeometry x="574.1" y="1380" width="50.8" height="50.8" as="geometry" />
        </mxCell>
        <mxCell id="G9AbDLSKTJvSuDwkwNPR-31" value="Step 2 (análisis)" style="rounded=0;whiteSpace=wrap;html=1;verticalAlign=top;align=left;" vertex="1" parent="1">
          <mxGeometry x="40" y="1480" width="720" height="240" as="geometry" />
        </mxCell>
        <mxCell id="G9AbDLSKTJvSuDwkwNPR-35" value="" style="group;fillColor=none;" vertex="1" connectable="0" parent="1">
          <mxGeometry x="96" y="1555" width="49" height="100" as="geometry" />
        </mxCell>
        <mxCell id="G9AbDLSKTJvSuDwkwNPR-33" value="" style="sketch=0;aspect=fixed;pointerEvents=1;shadow=0;dashed=0;html=1;strokeColor=none;labelPosition=center;verticalLabelPosition=bottom;verticalAlign=top;align=center;fillColor=#00188D;shape=mxgraph.mscae.general.video" vertex="1" parent="G9AbDLSKTJvSuDwkwNPR-35">
          <mxGeometry width="49" height="50" as="geometry" />
        </mxCell>
        <mxCell id="G9AbDLSKTJvSuDwkwNPR-34" value="" style="sketch=0;aspect=fixed;pointerEvents=1;shadow=0;dashed=0;html=1;strokeColor=none;labelPosition=center;verticalLabelPosition=bottom;verticalAlign=top;align=center;fillColor=#00188D;shape=mxgraph.mscae.general.video" vertex="1" parent="G9AbDLSKTJvSuDwkwNPR-35">
          <mxGeometry y="50" width="49" height="50" as="geometry" />
        </mxCell>
        <mxCell id="G9AbDLSKTJvSuDwkwNPR-47" value="" style="edgeStyle=orthogonalEdgeStyle;rounded=0;orthogonalLoop=1;jettySize=auto;html=1;" edge="1" parent="1" source="G9AbDLSKTJvSuDwkwNPR-37" target="G9AbDLSKTJvSuDwkwNPR-46">
          <mxGeometry relative="1" as="geometry" />
        </mxCell>
        <mxCell id="G9AbDLSKTJvSuDwkwNPR-37" value="Rekognition" style="sketch=0;points=[[0,0,0],[0.25,0,0],[0.5,0,0],[0.75,0,0],[1,0,0],[0,1,0],[0.25,1,0],[0.5,1,0],[0.75,1,0],[1,1,0],[0,0.25,0],[0,0.5,0],[0,0.75,0],[1,0.25,0],[1,0.5,0],[1,0.75,0]];outlineConnect=0;fontColor=#232F3E;fillColor=#01A88D;strokeColor=#ffffff;dashed=0;verticalLabelPosition=bottom;verticalAlign=top;align=center;html=1;fontSize=12;fontStyle=0;aspect=fixed;shape=mxgraph.aws4.resourceIcon;resIcon=mxgraph.aws4.rekognition_2;" vertex="1" parent="1">
          <mxGeometry x="319" y="1515" width="60" height="60" as="geometry" />
        </mxCell>
        <mxCell id="G9AbDLSKTJvSuDwkwNPR-38" value="Transcribe" style="sketch=0;points=[[0,0,0],[0.25,0,0],[0.5,0,0],[0.75,0,0],[1,0,0],[0,1,0],[0.25,1,0],[0.5,1,0],[0.75,1,0],[1,1,0],[0,0.25,0],[0,0.5,0],[0,0.75,0],[1,0.25,0],[1,0.5,0],[1,0.75,0]];outlineConnect=0;fontColor=#232F3E;fillColor=#01A88D;strokeColor=#ffffff;dashed=0;verticalLabelPosition=bottom;verticalAlign=top;align=center;html=1;fontSize=12;fontStyle=0;aspect=fixed;shape=mxgraph.aws4.resourceIcon;resIcon=mxgraph.aws4.transcribe;" vertex="1" parent="1">
          <mxGeometry x="319" y="1625" width="60" height="60" as="geometry" />
        </mxCell>
        <mxCell id="G9AbDLSKTJvSuDwkwNPR-49" style="edgeStyle=orthogonalEdgeStyle;rounded=0;orthogonalLoop=1;jettySize=auto;html=1;entryX=0;entryY=0.5;entryDx=0;entryDy=0;" edge="1" parent="1" source="G9AbDLSKTJvSuDwkwNPR-39" target="G9AbDLSKTJvSuDwkwNPR-48">
          <mxGeometry relative="1" as="geometry" />
        </mxCell>
        <mxCell id="G9AbDLSKTJvSuDwkwNPR-39" value="Comprehend" style="sketch=0;points=[[0,0,0],[0.25,0,0],[0.5,0,0],[0.75,0,0],[1,0,0],[0,1,0],[0.25,1,0],[0.5,1,0],[0.75,1,0],[1,1,0],[0,0.25,0],[0,0.5,0],[0,0.75,0],[1,0.25,0],[1,0.5,0],[1,0.75,0]];outlineConnect=0;fontColor=#232F3E;fillColor=#01A88D;strokeColor=#ffffff;dashed=0;verticalLabelPosition=bottom;verticalAlign=top;align=center;html=1;fontSize=12;fontStyle=0;aspect=fixed;shape=mxgraph.aws4.resourceIcon;resIcon=mxgraph.aws4.comprehend;" vertex="1" parent="1">
          <mxGeometry x="429" y="1625" width="60" height="60" as="geometry" />
        </mxCell>
        <mxCell id="G9AbDLSKTJvSuDwkwNPR-41" style="edgeStyle=orthogonalEdgeStyle;rounded=0;orthogonalLoop=1;jettySize=auto;html=1;curved=1;" edge="1" parent="1" source="G9AbDLSKTJvSuDwkwNPR-33" target="G9AbDLSKTJvSuDwkwNPR-37">
          <mxGeometry relative="1" as="geometry" />
        </mxCell>
        <mxCell id="G9AbDLSKTJvSuDwkwNPR-44" value="send_face_analysis" style="edgeLabel;html=1;align=center;verticalAlign=middle;resizable=0;points=[];fontColor=#0F77BD;" vertex="1" connectable="0" parent="G9AbDLSKTJvSuDwkwNPR-41">
          <mxGeometry x="-0.4725" y="2" relative="1" as="geometry">
            <mxPoint x="24" y="-13" as="offset" />
          </mxGeometry>
        </mxCell>
        <mxCell id="G9AbDLSKTJvSuDwkwNPR-42" style="edgeStyle=orthogonalEdgeStyle;rounded=0;orthogonalLoop=1;jettySize=auto;html=1;entryX=0;entryY=0.5;entryDx=0;entryDy=0;entryPerimeter=0;curved=1;" edge="1" parent="1" source="G9AbDLSKTJvSuDwkwNPR-34" target="G9AbDLSKTJvSuDwkwNPR-38">
          <mxGeometry relative="1" as="geometry" />
        </mxCell>
        <mxCell id="G9AbDLSKTJvSuDwkwNPR-45" value="send_audio_analysis" style="edgeLabel;html=1;align=center;verticalAlign=middle;resizable=0;points=[];fontColor=#0F77BD;" vertex="1" connectable="0" parent="G9AbDLSKTJvSuDwkwNPR-42">
          <mxGeometry x="-0.282" y="-2" relative="1" as="geometry">
            <mxPoint x="1" y="13" as="offset" />
          </mxGeometry>
        </mxCell>
        <mxCell id="G9AbDLSKTJvSuDwkwNPR-43" style="edgeStyle=orthogonalEdgeStyle;rounded=0;orthogonalLoop=1;jettySize=auto;html=1;entryX=0;entryY=0.5;entryDx=0;entryDy=0;entryPerimeter=0;" edge="1" parent="1" source="G9AbDLSKTJvSuDwkwNPR-38" target="G9AbDLSKTJvSuDwkwNPR-39">
          <mxGeometry relative="1" as="geometry" />
        </mxCell>
        <mxCell id="G9AbDLSKTJvSuDwkwNPR-46" value="ID task" style="whiteSpace=wrap;html=1;verticalAlign=middle;sketch=0;dashed=0;fontStyle=0;" vertex="1" parent="1">
          <mxGeometry x="419" y="1532.5" width="80" height="25" as="geometry" />
        </mxCell>
        <mxCell id="G9AbDLSKTJvSuDwkwNPR-48" value="ID task" style="whiteSpace=wrap;html=1;verticalAlign=middle;sketch=0;dashed=0;fontStyle=0;" vertex="1" parent="1">
          <mxGeometry x="520" y="1642.5" width="80" height="25" as="geometry" />
        </mxCell>
        <mxCell id="G9AbDLSKTJvSuDwkwNPR-50" value="Step 3 (Almacenar analisis por personas)" style="rounded=0;whiteSpace=wrap;html=1;verticalAlign=top;align=left;" vertex="1" parent="1">
          <mxGeometry x="40" y="1760" width="720" height="240" as="geometry" />
        </mxCell>
        <mxCell id="G9AbDLSKTJvSuDwkwNPR-51" value="Rekognition" style="sketch=0;points=[[0,0,0],[0.25,0,0],[0.5,0,0],[0.75,0,0],[1,0,0],[0,1,0],[0.25,1,0],[0.5,1,0],[0.75,1,0],[1,1,0],[0,0.25,0],[0,0.5,0],[0,0.75,0],[1,0.25,0],[1,0.5,0],[1,0.75,0]];outlineConnect=0;fontColor=#232F3E;fillColor=#01A88D;strokeColor=#ffffff;dashed=0;verticalLabelPosition=bottom;verticalAlign=top;align=center;html=1;fontSize=12;fontStyle=0;aspect=fixed;shape=mxgraph.aws4.resourceIcon;resIcon=mxgraph.aws4.rekognition_2;" vertex="1" parent="1">
          <mxGeometry x="664.1" y="1250" width="39.23" height="39.23" as="geometry" />
        </mxCell>
        <mxCell id="G9AbDLSKTJvSuDwkwNPR-54" value="" style="edgeStyle=orthogonalEdgeStyle;rounded=0;orthogonalLoop=1;jettySize=auto;html=1;" edge="1" parent="1" source="G9AbDLSKTJvSuDwkwNPR-52" target="G9AbDLSKTJvSuDwkwNPR-53">
          <mxGeometry relative="1" as="geometry" />
        </mxCell>
        <mxCell id="G9AbDLSKTJvSuDwkwNPR-55" value="get speakers to participate&amp;nbsp;&lt;span style=&quot;color: rgba(0, 0, 0, 0); font-family: monospace; font-size: 0px; text-align: start; background-color: rgb(236, 236, 236);&quot;&gt;%3CmxGraphModel%3E%3Croot%3E%3CmxCell%20id%3D%220%22%2F%3E%3CmxCell%20id%3D%221%22%20parent%3D%220%22%2F%3E%3CmxCell%20id%3D%222%22%20value%3D%22%22%20style%3D%22points%3D%5B%5D%3Baspect%3Dfixed%3Bhtml%3D1%3Balign%3Dcenter%3Bshadow%3D0%3Bdashed%3D0%3BfillColor%3D%231ba1e2%3BstrokeColor%3D%23006EAF%3Bshape%3Dmxgraph.alibaba_cloud.vms_voice_messaging_service%3BfontColor%3D%23ffffff%3B%22%20vertex%3D%221%22%20parent%3D%221%22%3E%3CmxGeometry%20x%3D%22394.1%22%20y%3D%221857.2%22%20width%3D%2247.400000000000006%22%20height%3D%2245.6%22%20as%3D%22geometry%22%2F%3E%3C%2FmxCell%3E%3C%2Froot%3E%3C%2FmxGraphModel%3E&lt;/span&gt;" style="edgeLabel;html=1;align=center;verticalAlign=middle;resizable=0;points=[];fontColor=#0F77BD;" vertex="1" connectable="0" parent="G9AbDLSKTJvSuDwkwNPR-54">
          <mxGeometry x="-0.4828" y="1" relative="1" as="geometry">
            <mxPoint x="42" as="offset" />
          </mxGeometry>
        </mxCell>
        <mxCell id="G9AbDLSKTJvSuDwkwNPR-52" value="&lt;span style=&quot;color: rgb(15, 119, 189); font-size: 11px; background-color: rgb(255, 255, 255);&quot;&gt;diarized transcription&lt;/span&gt;" style="sketch=0;points=[[0,0,0],[0.25,0,0],[0.5,0,0],[0.75,0,0],[1,0,0],[0,1,0],[0.25,1,0],[0.5,1,0],[0.75,1,0],[1,1,0],[0,0.25,0],[0,0.5,0],[0,0.75,0],[1,0.25,0],[1,0.5,0],[1,0.75,0]];outlineConnect=0;fontColor=#232F3E;fillColor=#01A88D;strokeColor=#ffffff;dashed=0;verticalLabelPosition=bottom;verticalAlign=top;align=center;html=1;fontSize=12;fontStyle=0;aspect=fixed;shape=mxgraph.aws4.resourceIcon;resIcon=mxgraph.aws4.transcribe;" vertex="1" parent="1">
          <mxGeometry x="140" y="1850" width="60" height="60" as="geometry" />
        </mxCell>
        <mxCell id="G9AbDLSKTJvSuDwkwNPR-53" value="" style="whiteSpace=wrap;html=1;verticalAlign=top;sketch=0;dashed=0;fontStyle=0;" vertex="1" parent="1">
          <mxGeometry x="381.8" y="1840" width="132.2" height="80" as="geometry" />
        </mxCell>
        <mxCell id="G9AbDLSKTJvSuDwkwNPR-56" value="Person 1" style="points=[];aspect=fixed;html=1;align=center;shadow=0;dashed=0;fillColor=#6d8764;strokeColor=#3A5431;shape=mxgraph.alibaba_cloud.vms_voice_messaging_service;fontColor=#0F77BD;verticalAlign=top;labelPosition=center;verticalLabelPosition=bottom;" vertex="1" parent="1">
          <mxGeometry x="391.1" y="1849.2" width="47.400000000000006" height="45.6" as="geometry" />
        </mxCell>
        <mxCell id="G9AbDLSKTJvSuDwkwNPR-57" value="" style="sketch=0;html=1;aspect=fixed;strokeColor=none;shadow=0;fillColor=#3B8DF1;verticalAlign=top;labelPosition=center;verticalLabelPosition=bottom;shape=mxgraph.gcp2.search" vertex="1" parent="1">
          <mxGeometry x="61" y="2040" width="99" height="100" as="geometry" />
        </mxCell>
        <mxCell id="G9AbDLSKTJvSuDwkwNPR-58" value="Person 2" style="points=[];aspect=fixed;html=1;align=center;shadow=0;dashed=0;fillColor=#fad9d5;strokeColor=#ae4132;shape=mxgraph.alibaba_cloud.vms_voice_messaging_service;labelPosition=center;verticalLabelPosition=bottom;verticalAlign=top;fontColor=#0F77BD;" vertex="1" parent="1">
          <mxGeometry x="457" y="1849.2" width="47.400000000000006" height="45.6" as="geometry" />
        </mxCell>
      </root>
    </mxGraphModel>
  </diagram>
</mxfile>
